<svg xmlns="http://www.w3.org/2000/svg" xmlns:xlink="http://www.w3.org/1999/xlink" viewBox="0 0 430 430" width="430" height="430" preserveAspectRatio="xMidYMid meet" style="width: 100%; height: 100%; transform: translate3d(0px, 0px, 0px); content-visibility: visible;"><defs><clipPath id="__lottie_element_2"><rect width="430" height="430" x="0" y="0"/></clipPath><clipPath id="__lottie_element_4"><path d="M0,0 L430,0 L430,430 L0,430z"/></clipPath></defs><g clip-path="url(#__lottie_element_2)"><g clip-path="url(#__lottie_element_4)" transform="matrix(1,0,0,1,0,0)" opacity="1" style="display: block;"><g transform="matrix(0.9894635081291199,0.14478251338005066,-0.14478251338005066,0.9894635081291199,200.29803466796875,276.8115234375)" opacity="1" style="display: block;"><g opacity="1" transform="matrix(1,0,0,1,0,0)"><path class="tertiary" fill="rgb(242,76,0)" fill-opacity="1" d=" M-17.062000274658203,-89.48999786376953 C-17.062000274658203,-89.48999786376953 -43.33599853515625,-75.375 -50.1510009765625,-134.8159942626953 C-50.1510009765625,-134.8159942626953 -67.5009994506836,-87.79499816894531 -67.5009994506836,-87.79499816894531 C-67.5009994506836,-87.79499816894531 -18.16900062561035,-28.865999221801758 -87.16799926757812,47.38199996948242 C-87.16799926757812,47.38199996948242 -43.1879997253418,125.6259994506836 -43.1879997253418,125.6259994506836 C-43.1879997253418,125.6259994506836 1.7510000467300415,37.387001037597656 36.71200180053711,89.3499984741211 C36.71200180053711,89.3499984741211 65.33599853515625,134.8159942626953 65.33599853515625,134.8159942626953 C65.33599853515625,134.8159942626953 87.16799926757812,58.446998596191406 87.16799926757812,58.446998596191406 C87.16799926757812,58.446998596191406 29.17099952697754,-9.145000457763672 73.00299835205078,-47.47800064086914 C73.00299835205078,-47.47800064086914 65.7239990234375,-96.40599822998047 65.7239990234375,-96.40599822998047 C65.7239990234375,-96.40599822998047 35.65299987792969,-24.305999755859375 17.764999389648438,-72.1709976196289 C17.764999389648438,-72.1709976196289 -17.062000274658203,-89.48999786376953 -17.062000274658203,-89.48999786376953z"/></g></g><g transform="matrix(0.9894635081291199,0.14478251338005066,-0.14478251338005066,0.9894635081291199,140.8345947265625,263.4666748046875)" opacity="0.5" style="mix-blend-mode: multiply; display: block;"><g opacity="1" transform="matrix(1,0,0,1,0,0)" style="mix-blend-mode: multiply;"><path class="tertiary" fill="rgb(242,76,0)" fill-opacity="1" d=" M-10.348999977111816,51.974998474121094 C-10.348999977111816,51.974998474121094 25.7810001373291,116.26499938964844 25.7810001373291,116.26499938964844 C20.641000747680664,124.2249984741211 17.58099937438965,130.22500610351562 17.58099937438965,130.22500610351562 C17.58099937438965,130.22500610351562 -26.39900016784668,51.974998474121094 -26.39900016784668,51.974998474121094 C42.60100173950195,-24.274999618530273 -6.738999843597412,-83.20500183105469 -6.738999843597412,-83.20500183105469 C-6.738999843597412,-83.20500183105469 10.611000061035156,-130.22500610351562 10.611000061035156,-130.22500610351562 C11.961000442504883,-118.4749984741211 14.071000099182129,-109.59500122070312 16.590999603271484,-102.91500091552734 C16.590999603271484,-102.91500091552734 9.310999870300293,-83.20500183105469 9.310999870300293,-83.20500183105469 C9.310999870300293,-83.20500183105469 58.6510009765625,-24.274999618530273 -10.348999977111816,51.974998474121094z"/></g></g><g transform="matrix(0.9894635081291199,0.14478251338005066,-0.14478251338005066,0.9894635081291199,214.1081085205078,182.39010620117188)" opacity="1" style="display: block;"><g opacity="1" transform="matrix(1,0,0,1,0,0)"><path class="secondary" fill="rgb(58,51,71)" fill-opacity="1" d=" M25.674999237060547,69.7300033569336 C25.674999237060547,69.7300033569336 25.674999237060547,92.19000244140625 25.674999237060547,92.19000244140625 C25.674999237060547,92.19000244140625 -25.674999237060547,92.19000244140625 -25.674999237060547,92.19000244140625 C-25.674999237060547,92.19000244140625 -25.674999237060547,69.7300033569336 -25.674999237060547,69.7300033569336 C-25.674999237060547,69.7300033569336 -17.405000686645508,69.7300033569336 -17.405000686645508,69.7300033569336 C-17.405000686645508,69.7300033569336 -17.405000686645508,-92.19000244140625 -17.405000686645508,-92.19000244140625 C-17.405000686645508,-92.19000244140625 17.415000915527344,-92.19000244140625 17.415000915527344,-92.19000244140625 C17.415000915527344,-92.19000244140625 17.415000915527344,69.7300033569336 17.415000915527344,69.7300033569336 C17.415000915527344,69.7300033569336 25.674999237060547,69.7300033569336 25.674999237060547,69.7300033569336z"/></g></g><g transform="matrix(0.9894635081291199,0.14478251338005066,-0.14478251338005066,0.9894635081291199,232.0905303955078,59.537208557128906)" opacity="1" style="display: block;"><g opacity="1" transform="matrix(1,0,0,1,0,0)"><path class="secondary" fill="rgb(58,51,71)" fill-opacity="1" d=" M20.697999954223633,-31.979000091552734 C20.697999954223633,-31.979000091552734 20.777000427246094,17.716999053955078 20.777000427246094,17.716999053955078 C20.777000427246094,17.716999053955078 17.410999298095703,31.979000091552734 17.410999298095703,31.979000091552734 C17.410999298095703,31.979000091552734 -17.417999267578125,31.979000091552734 -17.417999267578125,31.979000091552734 C-17.417999267578125,31.979000091552734 -20.777000427246094,18.757999420166016 -20.777000427246094,18.757999420166016 C-20.777000427246094,18.757999420166016 -20.777000427246094,-31.51099967956543 -20.777000427246094,-31.51099967956543 C-20.777000427246094,-31.51099967956543 -8.685999870300293,-16.288000106811523 -8.685999870300293,-16.288000106811523 C-4.415999889373779,-10.911999702453613 3.739000082015991,-10.887999534606934 8.041000366210938,-16.238000869750977 C8.041000366210938,-16.238000869750977 20.697999954223633,-31.979000091552734 20.697999954223633,-31.979000091552734z"/></g></g><g transform="matrix(0.9894635081291199,0.14478251338005066,-0.14478251338005066,0.9894635081291199,180.9137725830078,259.35107421875)" opacity="0.5" style="mix-blend-mode: multiply; display: block;"><g opacity="1" transform="matrix(1,0,0,1,0,0)" style="mix-blend-mode: multiply;"><path class="secondary" fill="rgb(58,51,71)" fill-opacity="1" d=" M-3.9749999046325684,-11.229999542236328 C-3.9749999046325684,-11.229999542236328 3.9749999046325684,-11.229999542236328 3.9749999046325684,-11.229999542236328 C3.9749999046325684,-11.229999542236328 3.9749999046325684,11.229999542236328 3.9749999046325684,11.229999542236328 C3.9749999046325684,11.229999542236328 -3.9749999046325684,11.229999542236328 -3.9749999046325684,11.229999542236328 C-3.9749999046325684,11.229999542236328 -3.9749999046325684,-11.229999542236328 -3.9749999046325684,-11.229999542236328z"/></g></g><g transform="matrix(0.9894635081291199,0.14478251338005066,-0.14478251338005066,0.9894635081291199,202.4441375732422,169.32977294921875)" opacity="0.5" style="mix-blend-mode: multiply; display: block;"><g opacity="1" transform="matrix(1,0,0,1,0,0)" style="mix-blend-mode: multiply;"><path class="secondary" fill="rgb(58,51,71)" fill-opacity="1" d=" M3.9749999046325684,-80.95999908447266 C3.9749999046325684,-80.95999908447266 3.9749999046325684,80.95999908447266 3.9749999046325684,80.95999908447266 C3.9749999046325684,80.95999908447266 -3.9749999046325684,80.95999908447266 -3.9749999046325684,80.95999908447266 C-3.9749999046325684,80.95999908447266 -3.9749999046325684,-80.95999908447266 -3.9749999046325684,-80.95999908447266 C-3.9749999046325684,-80.95999908447266 3.9749999046325684,-80.95999908447266 3.9749999046325684,-80.95999908447266z"/></g></g><g transform="matrix(0.9894635081291199,0.14478251338005066,-0.14478251338005066,0.9894635081291199,217.09413146972656,57.5783576965332)" opacity="0.5" style="mix-blend-mode: multiply; display: block;"><g opacity="1" transform="matrix(1,0,0,1,0,0)" style="mix-blend-mode: multiply;"><path class="secondary" fill="rgb(58,51,71)" fill-opacity="1" d=" M5.659999847412109,31.735000610351562 C5.659999847412109,31.735000610351562 5.659999847412109,31.7450008392334 5.659999847412109,31.7450008392334 C5.659999847412109,31.7450008392334 -2.299999952316284,31.7450008392334 -2.299999952316284,31.7450008392334 C-2.299999952316284,31.7450008392334 -5.659999847412109,18.524999618530273 -5.659999847412109,18.524999618530273 C-5.659999847412109,18.524999618530273 -5.659999847412109,-31.7450008392334 -5.659999847412109,-31.7450008392334 C-5.659999847412109,-31.7450008392334 2.2899999618530273,-21.735000610351562 2.2899999618530273,-21.735000610351562 C2.2899999618530273,-21.735000610351562 2.2899999618530273,18.524999618530273 2.2899999618530273,18.524999618530273 C2.2899999618530273,18.524999618530273 5.650000095367432,31.735000610351562 5.650000095367432,31.735000610351562 C5.650000095367432,31.735000610351562 5.659999847412109,31.735000610351562 5.659999847412109,31.735000610351562z"/></g></g><g transform="matrix(0.9894635081291199,0.14478251338005066,-0.14478251338005066,0.9894635081291199,218.09317016601562,89.80253601074219)" opacity="1" style="display: block;"><g opacity="1" transform="matrix(1,0,0,1,0,0)"><path class="secondary" fill="rgb(58,51,71)" fill-opacity="1" d=" M-0.004999999888241291,-0.004999999888241291 C-0.004999999888241291,-0.004999999888241291 0.004999999888241291,-0.004999999888241291 0.004999999888241291,-0.004999999888241291 C0.004999999888241291,-0.004999999888241291 0.004999999888241291,0.004999999888241291 0.004999999888241291,0.004999999888241291 C0.004999999888241291,0.004999999888241291 -0.004999999888241291,0.004999999888241291 -0.004999999888241291,0.004999999888241291 C-0.004999999888241291,0.004999999888241291 -0.004999999888241291,-0.004999999888241291 -0.004999999888241291,-0.004999999888241291z"/></g></g><g transform="matrix(0.9894635081291199,0.14478251338005066,-0.14478251338005066,0.9894635081291199,1.0595029592514038,-70.06559753417969)" opacity="1" style="display: block;"><g opacity="1" transform="matrix(1,0,0,1,221.31399536132812,103.38400268554688)"><path stroke-linecap="round" stroke-linejoin="round" fill-opacity="0" class="primary" stroke="rgb(18,19,49)" stroke-opacity="1" stroke-width="7" d=" M8.62399959564209,122.45899963378906 C8.62399959564209,122.45899963378906 -17.649999618530273,136.57400512695312 -24.46500015258789,77.13300323486328 C-24.46500015258789,77.13300323486328 -41.816001892089844,124.15399932861328 -41.816001892089844,124.15399932861328 C-41.816001892089844,124.15399932861328 7.517000198364258,183.08299255371094 -61.481998443603516,259.33099365234375 C-61.481998443603516,259.33099365234375 -17.50200080871582,337.57501220703125 -17.50200080871582,337.57501220703125 C-17.50200080871582,337.57501220703125 27.437000274658203,249.33599853515625 62.39799880981445,301.29901123046875 C62.39799880981445,301.29901123046875 91.02200317382812,346.7650146484375 91.02200317382812,346.7650146484375 C91.02200317382812,346.7650146484375 112.85399627685547,270.39599609375 112.85399627685547,270.39599609375 C112.85399627685547,270.39599609375 54.856998443603516,202.8040008544922 98.68900299072266,164.4709930419922 C98.68900299072266,164.4709930419922 91.41000366210938,115.54299926757812 91.41000366210938,115.54299926757812 C91.41000366210938,115.54299926757812 61.3390007019043,187.64300537109375 43.45100021362305,139.7779998779297 M43.45100021362305,77.53099822998047 C43.45100021362305,77.53099822998047 8.621999740600586,77.53099822998047 8.621999740600586,77.53099822998047 M5.263000011444092,-21.290000915527344 C5.263000011444092,-21.290000915527344 -5.263000011444092,-21.290000915527344 -5.263000011444092,-21.290000915527344 M57.29199981689453,-21.290000915527344 C57.29199981689453,-21.290000915527344 46.76599884033203,-21.290000915527344 46.76599884033203,-21.290000915527344 M43.45100021362305,130.7239990234375 C43.45100021362305,130.7239990234375 8.621999740600586,130.7239990234375 8.621999740600586,130.7239990234375 M57.4379997253418,0 C57.4379997253418,0 46.9119987487793,0 46.9119987487793,0 M5.263000011444092,0 C5.263000011444092,0 -5.263000011444092,0 -5.263000011444092,0"/></g><g opacity="1" transform="matrix(1,0,0,1,299.010986328125,360.9429931640625)"><path stroke-linecap="round" stroke-linejoin="round" fill-opacity="0" class="primary" stroke="rgb(18,19,49)" stroke-opacity="1" stroke-width="7" d=" M-77.33599853515625,-48.84000015258789 C-77.33599853515625,-48.84000015258789 -25.983999252319336,-48.84000015258789 -25.983999252319336,-48.84000015258789 C-25.983999252319336,-48.84000015258789 -25.983999252319336,-71.30799865722656 -25.983999252319336,-71.30799865722656 C-25.983999252319336,-71.30799865722656 -77.33599853515625,-71.30799865722656 -77.33599853515625,-71.30799865722656 C-77.33599853515625,-71.30799865722656 -77.33599853515625,-48.84000015258789 -77.33599853515625,-48.84000015258789z M-34.24700164794922,-233.22000122070312 C-34.24700164794922,-233.22000122070312 -34.24700164794922,-71.30799865722656 -34.24700164794922,-71.30799865722656 M-69.072998046875,-71.30799865722656 C-69.072998046875,-71.30799865722656 -69.072998046875,-233.22000122070312 -69.072998046875,-233.22000122070312 M-30.959999084472656,-297.17401123046875 C-30.959999084472656,-297.17401123046875 -30.8799991607666,-247.47900390625 -30.8799991607666,-247.47900390625 C-30.8799991607666,-247.47900390625 -34.24700164794922,-233.2169952392578 -34.24700164794922,-233.2169952392578 C-34.24700164794922,-233.2169952392578 -69.07599639892578,-233.2169952392578 -69.07599639892578,-233.2169952392578 C-69.07599639892578,-233.2169952392578 -72.43399810791016,-246.43800354003906 -72.43399810791016,-246.43800354003906 C-72.43399810791016,-246.43800354003906 -72.43399810791016,-296.70599365234375 -72.43399810791016,-296.70599365234375 C-72.43399810791016,-296.70599365234375 -60.34400177001953,-281.4840087890625 -60.34400177001953,-281.4840087890625 C-56.07400131225586,-276.1080017089844 -47.917999267578125,-276.0840148925781 -43.61600112915039,-281.4339904785156 C-43.61600112915039,-281.4339904785156 -30.959999084472656,-297.17401123046875 -30.959999084472656,-297.17401123046875z M-77.33599853515625,-12.255999565124512 C-77.33599853515625,-12.255999565124512 -25.983999252319336,-12.255999565124512 -25.983999252319336,-12.255999565124512"/></g><g opacity="1" transform="matrix(1,0,0,1,299.010986328125,360.9429931640625)"><path stroke-linecap="round" stroke-linejoin="round" fill-opacity="0" class="primary" stroke="rgb(18,19,49)" stroke-opacity="1" stroke-width="11.97" d=" M1.49399995803833,27.832000732421875 C1.49399995803833,27.832000732421875 1.503999948501587,27.832000732421875 1.503999948501587,27.832000732421875 M-0.004999999888241291,0 C-0.004999999888241291,0 0.004999999888241291,0 0.004999999888241291,0"/></g></g></g></g></svg>