<svg xmlns="http://www.w3.org/2000/svg" version="1.1" xmlns:xlink="http://www.w3.org/1999/xlink" xmlns:svgjs="http://svgjs.dev/svgjs" width="1500" height="1500" viewBox="0 0 1500 1500"><rect width="1500" height="1500" fill="#ffffff"></rect><g transform="matrix(0.6666666666666666,0,0,0.6666666666666666,249.39393939393938,540.589226489529)"><svg viewBox="0 0 396 166" data-background-color="#4d1d3b" preserveAspectRatio="xMidYMid meet" height="628" width="1500" xmlns="http://www.w3.org/2000/svg" xmlns:xlink="http://www.w3.org/1999/xlink"><g id="tight-bounds" transform="matrix(1,0,0,1,0.2400000000000091,0.030704783610360664)"><svg viewBox="0 0 395.52 165.93859043277928" height="165.93859043277928" width="395.52"><g><svg viewBox="0 0 395.52 165.93859043277928" height="165.93859043277928" width="395.52"><g transform="matrix(1,0,0,1,0,84.62428414028703)"><svg viewBox="0 0 395.52 81.31430629249226" height="81.31430629249226" width="395.52"><g id="textblocktransform"><svg viewBox="0 0 395.52 81.31430629249226" height="81.31430629249226" width="395.52" id="textblock"><g><svg viewBox="0 0 395.52 53.56494904349184" height="53.56494904349184" width="395.52"><g transform="matrix(1,0,0,1,0,0)"><svg width="395.52" viewBox="1.8026900000000001 -16.211961545884066 304.4688 41.23397719538417" height="53.56494904349184" data-palette-color="#d5cfd8"><path d="M2.583 12.712l-0.78-0.122 4.494-28.68 0.83 0.13 3.998 28.421 12.55-25.828 0.78 0.122-4.494 28.68-0.78-0.122 4.084-26.062-12.047 24.814-0.672-0.105-3.879-27.31zM32.623 17.44v0c-1.395-0.184-2.464-0.513-3.208-0.988-0.75-0.482-1.263-1.054-1.539-1.716-0.276-0.662-0.409-1.382-0.401-2.161 0.001-0.773 0.051-1.533 0.15-2.281v0l1.595-12.085c0.098-0.74 0.245-1.477 0.443-2.211 0.191-0.735 0.517-1.394 0.977-1.979 0.454-0.586 1.112-1.013 1.975-1.283 0.862-0.263 2.023-0.298 3.484-0.105v0c1.785 0.236 3.041 0.731 3.768 1.486 0.727 0.755 1.149 1.638 1.264 2.648 0.116 1.004 0.108 2.008-0.024 3.013v0l-1.595 12.085c-0.133 1.005-0.386 1.98-0.759 2.926-0.373 0.939-1.025 1.677-1.957 2.213-0.931 0.536-2.323 0.682-4.173 0.438zM32.725 16.667v0c1.692 0.223 2.941 0.082 3.748-0.424 0.813-0.505 1.368-1.191 1.664-2.06 0.296-0.869 0.5-1.726 0.611-2.572v0l1.556-11.788c0.115-0.872 0.141-1.76 0.079-2.662-0.062-0.903-0.404-1.701-1.025-2.395-0.615-0.686-1.736-1.137-3.362-1.351v0c-1.295-0.171-2.334-0.126-3.115 0.133-0.781 0.26-1.361 0.654-1.739 1.183-0.386 0.527-0.655 1.117-0.809 1.769-0.154 0.659-0.274 1.312-0.359 1.96v0l-1.556 11.788c-0.085 0.648-0.139 1.31-0.161 1.986-0.022 0.676 0.075 1.318 0.29 1.924 0.222 0.608 0.657 1.136 1.304 1.585 0.653 0.449 1.611 0.757 2.874 0.924zM45.924 18.715l-0.785-0.088 3.466-30.755 0.785 0.088-1.018 9.033c0.442-0.708 1.109-1.301 2.001-1.777 0.892-0.476 2.104-0.628 3.634-0.456v0c1.365 0.154 2.427 0.461 3.187 0.922 0.752 0.467 1.272 1.039 1.558 1.716 0.286 0.676 0.437 1.394 0.452 2.154 0.015 0.76-0.019 1.511-0.103 2.252v0l-2.047 18.165-0.785-0.088 1.996-17.718c0.11-0.98 0.138-1.943 0.084-2.889-0.061-0.946-0.409-1.76-1.043-2.442-0.628-0.675-1.757-1.104-3.387-1.287v0c-1.789-0.202-3.141 0.099-4.056 0.901-0.916 0.803-1.515 1.896-1.799 3.28v0zM68.079 21.194v0c-0.75-0.07-1.511-0.274-2.283-0.614-0.779-0.334-1.407-0.924-1.884-1.772-0.483-0.855-0.647-2.112-0.493-3.772v0l0.155-1.663c0.097-1.042 0.421-1.933 0.971-2.671 0.544-0.739 1.173-1.347 1.887-1.823 0.72-0.475 1.415-0.856 2.085-1.142 0.669-0.286 1.157-0.495 1.464-0.627v0c1.368-0.596 2.445-1.128 3.232-1.598 0.787-0.469 1.369-0.974 1.748-1.514 0.378-0.541 0.606-1.219 0.681-2.036v0l0.064-0.687c0.103-1.109-0.058-1.93-0.483-2.466-0.433-0.529-1.002-0.893-1.707-1.092-0.705-0.199-1.432-0.334-2.182-0.404v0c-1.434-0.133-2.525 0.013-3.274 0.439-0.743 0.426-1.258 1.038-1.547 1.834-0.288 0.79-0.479 1.693-0.573 2.709v0l-0.186 2.001-0.787-0.073 0.196-2.101c0.176-1.892 0.69-3.351 1.541-4.376 0.851-1.019 2.419-1.422 4.703-1.21v0c1.759 0.164 3.002 0.51 3.729 1.04 0.721 0.522 1.137 1.16 1.249 1.914 0.111 0.747 0.126 1.562 0.043 2.444v0l-1.829 19.666-0.726-0.068 0.332-3.575c-0.498 1.105-1.276 1.954-2.336 2.545-1.06 0.598-2.323 0.828-3.79 0.692zM68.302 20.421v0c1.434 0.133 2.578-0.072 3.431-0.614 0.861-0.549 1.511-1.346 1.95-2.39 0.445-1.043 0.73-2.232 0.854-3.566v0l0.837-9.002c-0.591 0.668-1.36 1.229-2.306 1.684-0.946 0.454-1.916 0.913-2.91 1.377v0c-0.859 0.382-1.714 0.788-2.564 1.217-0.844 0.437-1.571 1.019-2.181 1.746-0.611 0.733-0.974 1.721-1.089 2.962v0l-0.118 1.274c-0.143 1.533 0 2.665 0.427 3.394 0.421 0.729 0.982 1.216 1.682 1.462 0.7 0.246 1.362 0.398 1.987 0.456zM82.012 22.13l-0.788-0.054 1.652-24.264 0.689 0.047-0.068 2.461c0.41-0.727 1.051-1.348 1.921-1.863 0.87-0.515 2.074-0.721 3.611-0.617v0c1.929 0.131 3.262 0.576 3.998 1.335 0.737 0.752 1.185 1.628 1.345 2.628v0c0.435-1.086 1.149-1.916 2.144-2.491 0.988-0.574 2.234-0.81 3.737-0.707v0c1.37 0.093 2.445 0.354 3.224 0.781 0.772 0.433 1.316 0.982 1.632 1.644 0.316 0.663 0.498 1.374 0.546 2.132 0.049 0.758 0.048 1.51-0.003 2.255v0l-1.242 18.238-0.788-0.054 1.212-17.788c0.067-0.984 0.052-1.948-0.044-2.89-0.103-0.943-0.486-1.74-1.15-2.394-0.658-0.646-1.805-1.025-3.441-1.136v0c-1.796-0.122-3.145 0.31-4.048 1.298-0.909 0.987-1.484 2.308-1.723 3.962v0l-1.242 18.238-0.788-0.054 1.212-17.789c0.067-0.984 0.052-1.948-0.044-2.889-0.103-0.943-0.486-1.74-1.15-2.394-0.658-0.646-1.805-1.025-3.441-1.136v0c-1.796-0.122-3.133 0.238-4.013 1.079-0.879 0.842-1.43 1.961-1.651 3.356v0zM116.48 24.489v0c-1.405-0.06-2.5-0.293-3.283-0.7-0.79-0.414-1.351-0.938-1.685-1.573-0.333-0.635-0.53-1.34-0.59-2.118-0.067-0.77-0.085-1.532-0.053-2.284v0l0.518-12.179c0.043-1.012 0.199-2.003 0.466-2.973 0.275-0.976 0.843-1.772 1.703-2.389 0.86-0.617 2.19-0.888 3.989-0.812v0c1.832 0.078 3.144 0.444 3.936 1.099 0.793 0.661 1.275 1.486 1.447 2.473 0.172 0.988 0.234 2.022 0.188 3.101v0l-0.228 5.355-10.95-0.465-0.284 6.673c-0.041 0.952 0.01 1.882 0.152 2.789 0.142 0.907 0.564 1.652 1.266 2.236 0.696 0.59 1.843 0.919 3.441 0.987v0c1.605 0.068 2.773-0.162 3.503-0.691 0.723-0.523 1.193-1.224 1.41-2.102 0.218-0.878 0.347-1.807 0.389-2.786v0l0.083-1.959 0.79 0.034-0.09 2.108c-0.043 1.012-0.185 2.007-0.427 2.985-0.235 0.971-0.776 1.765-1.623 2.383-0.847 0.618-2.203 0.887-4.068 0.808zM112.147 6.118l-0.175 4.116 10.161 0.432 0.175-4.116c0.049-1.146 0.013-2.181-0.108-3.107-0.128-0.92-0.53-1.664-1.207-2.234-0.683-0.57-1.844-0.889-3.482-0.958v0c-1.439-0.061-2.535 0.146-3.289 0.62-0.761 0.475-1.284 1.157-1.569 2.046-0.285 0.889-0.454 1.956-0.506 3.201zM134.095 25.019v0c-1.833-0.044-3.158-0.402-3.976-1.075-0.818-0.673-1.315-1.502-1.491-2.486-0.17-0.991-0.243-1.993-0.218-3.006v0l0.29-12.187c0.018-0.746 0.086-1.495 0.204-2.245 0.111-0.751 0.354-1.442 0.73-2.074 0.375-0.631 0.97-1.127 1.786-1.487 0.809-0.354 1.899-0.515 3.272-0.483v0c1.146 0.027 2.063 0.173 2.75 0.436 0.681 0.263 1.204 0.546 1.571 0.848 0.373 0.302 0.621 0.522 0.744 0.658v0l0.192-8.058 0.79 0.019-0.738 30.941-0.64-0.015-0.041-2.462c-0.243 0.688-0.832 1.314-1.765 1.879-0.927 0.565-2.08 0.831-3.46 0.797zM134.113 24.24v0c1.38 0.033 2.442-0.212 3.189-0.735 0.753-0.522 1.28-1.223 1.58-2.103 0.294-0.88 0.454-1.826 0.478-2.839v0l0.363-15.226c-0.088-0.229-0.267-0.537-0.538-0.923-0.271-0.38-0.756-0.742-1.454-1.085-0.692-0.343-1.711-0.531-3.058-0.563v0c-1.273-0.03-2.257 0.126-2.952 0.47-0.695 0.344-1.199 0.798-1.513 1.364-0.307 0.566-0.502 1.182-0.584 1.847-0.083 0.672-0.132 1.334-0.147 1.987v0l-0.284 11.886c-0.016 0.653 0.002 1.317 0.053 1.992 0.051 0.675 0.216 1.302 0.495 1.883 0.286 0.58 0.768 1.059 1.446 1.435 0.678 0.376 1.653 0.58 2.926 0.61zM155.852 24.863l-0.79 0.006-0.206-29.03 0.84-0.006 8.544 27.401 8.206-27.519 0.79-0.006 0.205 29.03-0.79 0.005-0.186-26.379-7.874 26.436-0.679 0.005-8.247-26.322zM186.261 24.668v0c-1.406 0.044-2.515-0.108-3.326-0.456-0.818-0.355-1.417-0.836-1.796-1.444-0.379-0.608-0.628-1.298-0.745-2.068-0.124-0.763-0.198-1.521-0.222-2.274v0l-0.381-12.184c-0.023-0.746 0.003-1.498 0.08-2.254 0.07-0.756 0.284-1.46 0.644-2.111 0.353-0.651 0.934-1.18 1.741-1.585 0.808-0.399 1.948-0.621 3.421-0.668v0c1.799-0.056 3.119 0.229 3.959 0.857 0.84 0.627 1.399 1.43 1.676 2.409 0.277 0.972 0.432 1.964 0.463 2.977v0l0.382 12.184c0.032 1.013-0.06 2.016-0.276 3.01-0.216 0.987-0.74 1.821-1.573 2.5-0.832 0.68-2.182 1.049-4.047 1.107zM186.236 23.889v0c1.706-0.053 2.916-0.395 3.63-1.024 0.721-0.63 1.157-1.397 1.309-2.302 0.152-0.905 0.214-1.784 0.187-2.638v0l-0.372-11.884c-0.028-0.88-0.145-1.76-0.352-2.64-0.208-0.881-0.674-1.613-1.4-2.197-0.718-0.578-1.897-0.841-3.536-0.79v0c-1.306 0.041-2.323 0.253-3.052 0.636-0.728 0.383-1.237 0.866-1.525 1.448-0.295 0.583-0.466 1.208-0.512 1.877-0.046 0.675-0.058 1.339-0.038 1.992v0l0.372 11.884c0.02 0.653 0.075 1.315 0.163 1.986 0.088 0.671 0.287 1.288 0.598 1.853 0.318 0.564 0.832 1.014 1.543 1.352 0.718 0.338 1.713 0.487 2.985 0.447zM203.332 23.878v0c-1.698 0.085-3.11-0.251-4.236-1.009-1.12-0.765-1.725-2.046-1.815-3.843v0l-0.166-3.296 0.789-0.04 0.166 3.296c0.072 1.438 0.593 2.5 1.562 3.186 0.969 0.692 2.19 1.001 3.661 0.927v0c1.538-0.077 2.757-0.466 3.656-1.165 0.899-0.706 1.311-1.811 1.235-3.316v0l-0.093-1.858c-0.063-1.245-0.375-2.207-0.936-2.886-0.554-0.673-1.246-1.212-2.074-1.618-0.821-0.399-1.701-0.772-2.64-1.119v0c-1.035-0.409-1.99-0.818-2.865-1.228-0.869-0.417-1.573-0.949-2.113-1.596-0.546-0.647-0.847-1.509-0.901-2.588v0l-0.083-1.668c-0.069-1.372 0.4-2.543 1.405-3.515 1-0.965 2.431-1.494 4.296-1.588v0c1.698-0.085 3.115 0.227 4.252 0.938 1.131 0.717 1.74 1.958 1.829 3.723v0l0.16 3.186-0.779 0.039-0.145-2.886c-0.079-1.571-0.569-2.688-1.47-3.351-0.908-0.662-2.177-0.952-3.808-0.87v0c-1.638 0.082-2.886 0.556-3.744 1.42-0.858 0.864-1.253 1.969-1.185 3.314v0l0.044 0.879c0.054 1.079 0.377 1.93 0.97 2.554 0.586 0.631 1.282 1.13 2.087 1.497 0.806 0.367 1.56 0.696 2.263 0.988v0c1 0.377 1.966 0.799 2.897 1.266 0.924 0.461 1.693 1.076 2.306 1.847 0.613 0.77 0.954 1.844 1.023 3.223v0l0.093 1.857c0.064 1.278-0.165 2.291-0.688 3.039-0.517 0.747-1.21 1.299-2.08 1.656-0.87 0.351-1.828 0.552-2.873 0.605zM215.52 22.895l-0.788 0.048-1.894-30.892 0.788-0.048zM227.808 22.332v0c-1.403 0.106-2.517 0.002-3.342-0.31-0.833-0.318-1.452-0.773-1.858-1.365-0.405-0.591-0.684-1.269-0.835-2.033-0.157-0.757-0.264-1.511-0.321-2.262v0l-0.914-12.156c-0.076-1.01-0.038-2.013 0.115-3.007 0.159-1.001 0.629-1.859 1.411-2.573 0.782-0.714 2.07-1.139 3.865-1.273v0c1.828-0.138 3.174 0.072 4.039 0.629 0.865 0.563 1.44 1.326 1.726 2.286 0.286 0.961 0.47 1.98 0.551 3.058v0l0.402 5.345-10.929 0.822 0.501 6.661c0.072 0.951 0.231 1.868 0.478 2.752 0.247 0.884 0.754 1.575 1.519 2.072 0.76 0.504 1.938 0.697 3.534 0.576v0c1.602-0.121 2.735-0.486 3.397-1.098 0.657-0.604 1.041-1.355 1.154-2.253 0.113-0.898 0.133-1.835 0.059-2.812v0l-0.147-1.954 0.788-0.06 0.158 2.104c0.076 1.01 0.051 2.015-0.074 3.015-0.119 0.992-0.563 1.844-1.332 2.557-0.769 0.713-2.084 1.14-3.945 1.279zM221.35 4.597l0.309 4.108 10.141-0.763-0.309-4.108c-0.086-1.143-0.243-2.168-0.472-3.073-0.235-0.898-0.721-1.59-1.46-2.077-0.745-0.485-1.935-0.667-3.571-0.544v0c-1.436 0.108-2.501 0.442-3.193 1.003-0.7 0.561-1.139 1.299-1.318 2.215-0.178 0.916-0.221 1.996-0.127 3.239zM240.814 20.853l-0.786 0.079-2.425-24.199 0.686-0.069 0.345 2.438c0.283-0.785 0.811-1.505 1.583-2.159 0.772-0.654 1.924-1.057 3.456-1.21v0c1.924-0.193 3.312 0.023 4.165 0.648 0.853 0.618 1.441 1.407 1.765 2.365v0c0.247-1.144 0.813-2.081 1.698-2.813 0.878-0.731 2.067-1.172 3.566-1.322v0c1.366-0.137 2.47-0.06 3.31 0.231 0.834 0.298 1.462 0.748 1.883 1.349 0.422 0.601 0.72 1.271 0.895 2.011 0.175 0.74 0.299 1.481 0.374 2.224v0l1.823 18.189-0.786 0.078-1.778-17.741c-0.098-0.982-0.274-1.929-0.526-2.842-0.259-0.912-0.77-1.635-1.534-2.167-0.756-0.527-1.95-0.709-3.582-0.546v0c-1.791 0.179-3.049 0.832-3.774 1.956-0.731 1.125-1.077 2.523-1.037 4.194v0l1.823 18.189-0.786 0.079-1.778-17.741c-0.098-0.982-0.274-1.929-0.526-2.842-0.259-0.912-0.77-1.635-1.534-2.168-0.756-0.527-1.95-0.709-3.582-0.545v0c-1.791 0.179-3.05 0.758-3.776 1.735-0.726 0.977-1.082 2.172-1.068 3.584v0zM274.251 17.397v0c-0.747 0.094-1.535 0.059-2.362-0.105-0.833-0.157-1.574-0.598-2.223-1.323-0.656-0.73-1.089-1.922-1.297-3.576v0l-0.209-1.656c-0.131-1.038-0.007-1.978 0.371-2.819 0.371-0.84 0.854-1.569 1.448-2.188 0.601-0.62 1.197-1.142 1.788-1.566 0.592-0.424 1.023-0.734 1.294-0.929v0c1.206-0.878 2.143-1.631 2.809-2.259 0.667-0.628 1.126-1.247 1.379-1.857 0.252-0.61 0.327-1.321 0.225-2.135v0l-0.086-0.684c-0.139-1.105-0.474-1.872-1.006-2.303-0.537-0.423-1.171-0.655-1.902-0.697-0.731-0.042-1.47-0.016-2.218 0.077v0c-1.429 0.18-2.463 0.559-3.102 1.137-0.633 0.577-1.004 1.286-1.113 2.126-0.11 0.834-0.101 1.756 0.026 2.769v0l0.252 1.994-0.784 0.099-0.264-2.094c-0.238-1.885-0.051-3.42 0.558-4.606 0.611-1.179 2.054-1.912 4.329-2.198v0c1.753-0.221 3.042-0.151 3.867 0.208 0.817 0.354 1.362 0.887 1.633 1.598 0.27 0.705 0.461 1.497 0.571 2.377v0l2.47 19.595-0.725 0.092-0.449-3.562c-0.247 1.187-0.823 2.183-1.729 2.99-0.905 0.813-2.089 1.312-3.551 1.495zM274.301 16.595v0c1.429-0.18 2.501-0.628 3.217-1.343 0.722-0.723 1.184-1.641 1.387-2.755 0.209-1.115 0.23-2.337 0.062-3.667v0l-1.131-8.969c-0.433 0.78-1.061 1.494-1.886 2.143-0.825 0.648-1.673 1.306-2.544 1.974v0c-0.756 0.559-1.503 1.14-2.239 1.743-0.73 0.609-1.313 1.335-1.752 2.176-0.437 0.848-0.578 1.89-0.422 3.128v0l0.16 1.27c0.193 1.528 0.576 2.602 1.152 3.221 0.569 0.62 1.221 0.975 1.958 1.063 0.737 0.089 1.416 0.094 2.038 0.016zM287.988 15.331l-0.782 0.114-3.492-24.068 0.683-0.099 0.466 2.519c0.248-0.797 0.741-1.556 1.479-2.276 0.738-0.72 1.868-1.191 3.392-1.412v0c1.359-0.197 2.465-0.169 3.317 0.085 0.846 0.261 1.494 0.683 1.941 1.264 0.448 0.582 0.776 1.238 0.983 1.969 0.207 0.731 0.364 1.466 0.472 2.206v0l2.625 18.09-0.782 0.114-2.56-17.646c-0.142-0.976-0.359-1.915-0.651-2.815-0.299-0.9-0.842-1.599-1.629-2.098-0.779-0.493-1.98-0.622-3.602-0.387v0c-1.781 0.258-3.04 0.936-3.778 2.034-0.73 1.096-0.994 2.344-0.79 3.742v0zM306.271 12.556l-0.78 0.125-3.827-24.017 0.781-0.125zM301.5-14.844v0c-0.448 0.071-0.707-0.117-0.778-0.565v0c-0.072-0.454 0.115-0.717 0.563-0.788v0c0.454-0.072 0.718 0.119 0.79 0.573v0c0.071 0.448-0.12 0.708-0.575 0.78z" opacity="1" transform="matrix(1,0,0,1,0,0)" fill="#000000" class="wordmark-text-0" data-fill-palette-color="primary" id="text-0"></path></svg></g></svg></g><g transform="matrix(1,0,0,1,118.31980799999998,70.11483828246567)"><svg viewBox="0 0 158.88038400000002 11.199468010026589" height="11.199468010026589" width="158.88038400000002"><g transform="matrix(1,0,0,1,0,0)"><svg width="158.88038400000002" viewBox="6.25 -40.6 658.18 46.4" height="11.199468010026589" data-palette-color="#d5cfd8"><path d="M18-34.8Q25.75-34.8 29.85-30.2 33.95-25.6 33.95-17.4L33.95-17.4Q33.95-9.2 29.85-4.6 25.75 0 18 0L18 0 6.25 0 6.25-34.8 18-34.8ZM18.35-4.2Q23.75-4.2 26.48-7.73 29.2-11.25 29.2-17.4L29.2-17.4Q29.2-23.55 26.48-27.08 23.75-30.6 18.35-30.6L18.35-30.6 10.65-30.6 10.65-4.2 18.35-4.2ZM64.65 0L60.25 0 59.55-3.75Q57.6-1.6 55.32-0.5 53.05 0.6 50.2 0.6L50.2 0.6Q46.65 0.6 44.45-1.43 42.25-3.45 42.25-6.8L42.25-6.8Q42.25-11.15 45.75-13.2 49.25-15.25 54.75-15.25L54.75-15.25Q56.75-15.25 59.15-15L59.15-15 59.15-16.8Q59.15-19.5 57.67-21.13 56.2-22.75 53.85-22.75L53.85-22.75Q51.05-22.75 48.77-22 46.5-21.25 44.1-19.65L44.1-19.65 44.1-23.9Q46.45-25.45 48.9-26.08 51.35-26.7 54.5-26.7L54.5-26.7Q58.5-26.7 61.02-24.15 63.55-21.6 63.55-17.4L63.55-17.4 63.55-5.8 64.65 0ZM51.1-3.1Q53.5-3.1 55.4-4.1 57.3-5.1 59.15-7L59.15-7 59.15-11.9 54.55-11.9Q47-11.9 47-7.05L47-7.05Q47-5.25 48.15-4.17 49.3-3.1 51.1-3.1L51.1-3.1ZM78.65-35.4L78.65-26.1 85.84-26.1 85.84-22.3 78.65-22.3 78.65-7.35Q78.65-5.5 79.47-4.38 80.3-3.25 81.9-3.25L81.9-3.25Q83-3.25 83.87-3.48 84.75-3.7 85.84-4.2L85.84-4.2 85.84-0.3Q84.7 0.25 83.65 0.43 82.59 0.6 81.09 0.6L81.09 0.6Q77.9 0.6 76.07-1.45 74.25-3.5 74.25-6.9L74.25-6.9 74.25-22.3 69.25-22.3 69.25-26.1 74.25-26.1 74.25-33.1 78.65-35.4ZM113.64 0L109.24 0 108.54-3.75Q106.59-1.6 104.32-0.5 102.04 0.6 99.19 0.6L99.19 0.6Q95.64 0.6 93.44-1.43 91.24-3.45 91.24-6.8L91.24-6.8Q91.24-11.15 94.74-13.2 98.24-15.25 103.74-15.25L103.74-15.25Q105.74-15.25 108.14-15L108.14-15 108.14-16.8Q108.14-19.5 106.67-21.13 105.19-22.75 102.84-22.75L102.84-22.75Q100.04-22.75 97.77-22 95.49-21.25 93.09-19.65L93.09-19.65 93.09-23.9Q95.44-25.45 97.89-26.08 100.34-26.7 103.49-26.7L103.49-26.7Q107.49-26.7 110.02-24.15 112.54-21.6 112.54-17.4L112.54-17.4 112.54-5.8 113.64 0ZM100.09-3.1Q102.49-3.1 104.39-4.1 106.29-5.1 108.14-7L108.14-7 108.14-11.9 103.54-11.9Q95.99-11.9 95.99-7.05L95.99-7.05Q95.99-5.25 97.14-4.17 98.29-3.1 100.09-3.1L100.09-3.1ZM147.29 0.6Q144.39 0.6 141.24-0.15 138.09-0.9 135.29-2.2L135.29-2.2 135.29-6.95Q138.59-5.15 141.41-4.3 144.24-3.45 146.99-3.45L146.99-3.45Q150.44-3.45 152.34-5 154.24-6.55 154.24-9.25L154.24-9.25Q154.24-11.1 153.19-12.35 152.14-13.6 150.54-14.35 148.94-15.1 146.24-16L146.24-16Q142.99-17.1 141.01-18.1 139.04-19.1 137.64-20.95 136.24-22.8 136.24-25.75L136.24-25.75Q136.24-30.15 139.44-32.77 142.64-35.4 148.04-35.4L148.04-35.4Q153.29-35.4 157.69-33.15L157.69-33.15 157.69-28.55Q152.74-31.35 148.04-31.35L148.04-31.35Q144.59-31.35 142.64-29.98 140.69-28.6 140.69-26.2L140.69-26.2Q140.69-24.55 141.69-23.45 142.69-22.35 144.14-21.68 145.59-21 148.24-20.05L148.24-20.05Q151.54-18.95 153.64-17.9 155.74-16.85 157.21-14.85 158.69-12.85 158.69-9.7L158.69-9.7Q158.69-6.6 157.29-4.28 155.89-1.95 153.29-0.68 150.69 0.6 147.29 0.6L147.29 0.6ZM177.99 0.6Q174.34 0.6 171.59-1.15 168.84-2.9 167.39-5.98 165.94-9.05 165.94-12.95L165.94-12.95Q165.94-16.9 167.39-20.03 168.84-23.15 171.59-24.93 174.34-26.7 178.04-26.7L178.04-26.7Q180.64-26.7 182.59-26.15 184.54-25.6 186.29-24.15L186.29-24.15 186.29-19.9 186.09-19.9Q184.29-21.4 182.36-22.05 180.44-22.7 177.99-22.7L177.99-22.7Q174.44-22.7 172.51-19.95 170.59-17.2 170.59-12.9L170.59-12.9Q170.59-8.75 172.51-6.08 174.44-3.4 177.94-3.4L177.94-3.4Q180.54-3.4 182.59-4.23 184.64-5.05 186.64-6.85L186.64-6.85 186.84-6.85 186.84-2.6Q184.99-0.85 182.86-0.13 180.74 0.6 177.99 0.6L177.99 0.6ZM196.98-32Q195.58-32 194.71-32.9 193.83-33.8 193.83-35.2L193.83-35.2Q193.83-36.6 194.71-37.5 195.58-38.4 196.98-38.4L196.98-38.4Q198.38-38.4 199.26-37.5 200.13-36.6 200.13-35.2L200.13-35.2Q200.13-33.8 199.26-32.9 198.38-32 196.98-32L196.98-32ZM194.78-26.1L199.18-26.1 199.18 0 194.78 0 194.78-26.1ZM230.58-13.05L230.58-11.6 212.08-11.6Q212.48-7.75 214.66-5.48 216.83-3.2 220.58-3.2L220.58-3.2Q222.83-3.2 224.96-4.13 227.08-5.05 229.28-6.85L229.28-6.85 229.48-6.85 229.48-2.45Q227.28-0.85 225.13-0.13 222.98 0.6 220.53 0.6L220.53 0.6Q216.53 0.6 213.58-1.15 210.63-2.9 209.06-6.03 207.48-9.15 207.48-13.2L207.48-13.2Q207.48-17.05 208.91-20.13 210.33-23.2 212.98-24.95 215.63-26.7 219.18-26.7L219.18-26.7Q222.78-26.7 225.36-24.93 227.93-23.15 229.26-20.05 230.58-16.95 230.58-13.05L230.58-13.05ZM219.23-23.05Q216.13-23.05 214.28-20.8 212.43-18.55 212.08-15L212.08-15 226.03-15Q225.68-18.65 224.01-20.85 222.33-23.05 219.23-23.05L219.23-23.05ZM252.93-26.7Q256.63-26.7 258.53-24.43 260.43-22.15 260.43-18.1L260.43-18.1 260.43 0 256.03 0 256.03-17.5Q256.03-20 254.98-21.38 253.93-22.75 251.78-22.75L251.78-22.75Q249.33-22.75 247.65-21.95 245.98-21.15 243.93-19.35L243.93-19.35 243.93 0 239.53 0 239.53-20.3 238.43-26.1 242.83-26.1 243.53-22.45Q245.88-24.7 247.9-25.7 249.93-26.7 252.93-26.7L252.93-26.7ZM276.63-35.4L276.63-26.1 283.83-26.1 283.83-22.3 276.63-22.3 276.63-7.35Q276.63-5.5 277.45-4.38 278.28-3.25 279.88-3.25L279.88-3.25Q280.98-3.25 281.85-3.48 282.73-3.7 283.83-4.2L283.83-4.2 283.83-0.3Q282.68 0.25 281.63 0.43 280.58 0.6 279.08 0.6L279.08 0.6Q275.88 0.6 274.05-1.45 272.23-3.5 272.23-6.9L272.23-6.9 272.23-22.3 267.23-22.3 267.23-26.1 272.23-26.1 272.23-33.1 276.63-35.4ZM292.97-32Q291.57-32 290.7-32.9 289.82-33.8 289.82-35.2L289.82-35.2Q289.82-36.6 290.7-37.5 291.57-38.4 292.97-38.4L292.97-38.4Q294.37-38.4 295.25-37.5 296.12-36.6 296.12-35.2L296.12-35.2Q296.12-33.8 295.25-32.9 294.37-32 292.97-32L292.97-32ZM290.77-26.1L295.17-26.1 295.17 0 290.77 0 290.77-26.1ZM311.97 0.6Q309.57 0.6 307.25-0.13 304.92-0.85 302.87-2.2L302.87-2.2 302.87-6.8Q307.42-3.3 311.87-3.3L311.87-3.3Q314.47-3.3 316.07-4.38 317.67-5.45 317.67-7.25L317.67-7.25Q317.67-8.5 316.9-9.3 316.12-10.1 314.97-10.55 313.82-11 311.67-11.65L311.67-11.65Q309.02-12.4 307.3-13.13 305.57-13.85 304.37-15.28 303.17-16.7 303.17-19L303.17-19Q303.17-22.5 305.82-24.6 308.47-26.7 312.77-26.7L312.77-26.7Q317.07-26.7 320.57-24.45L320.57-24.45 320.57-20Q318.62-21.5 316.8-22.15 314.97-22.8 312.97-22.8L312.97-22.8Q310.47-22.8 309.02-21.9 307.57-21 307.57-19.4L307.57-19.4Q307.57-18.25 308.35-17.5 309.12-16.75 310.27-16.3 311.42-15.85 313.57-15.2L313.57-15.2Q316.27-14.4 317.97-13.68 319.67-12.95 320.87-11.48 322.07-10 322.07-7.65L322.07-7.65Q322.07-5.25 320.77-3.38 319.47-1.5 317.17-0.45 314.87 0.6 311.97 0.6L311.97 0.6ZM335.62-35.4L335.62-26.1 342.82-26.1 342.82-22.3 335.62-22.3 335.62-7.35Q335.62-5.5 336.44-4.38 337.27-3.25 338.87-3.25L338.87-3.25Q339.97-3.25 340.84-3.48 341.72-3.7 342.82-4.2L342.82-4.2 342.82-0.3Q341.67 0.25 340.62 0.43 339.57 0.6 338.07 0.6L338.07 0.6Q334.87 0.6 333.04-1.45 331.22-3.5 331.22-6.9L331.22-6.9 331.22-22.3 326.22-22.3 326.22-26.1 331.22-26.1 331.22-33.1 335.62-35.4ZM364.46-40.6L368.86-40.6 368.86 5.8 364.46 5.8 364.46-40.6ZM419.86 0L414.56 0 407.51-13.65 407.01-13.65 399.01-13.65 399.01 0 394.61 0 394.61-34.8 406.41-34.8Q412.66-34.8 415.71-32.18 418.76-29.55 418.76-24.5L418.76-24.5Q418.76-20.75 417.11-18.15 415.46-15.55 412.26-14.45L412.26-14.45 419.86 0ZM406.46-17.8Q410.36-17.8 412.18-19.33 414.01-20.85 414.01-24.5L414.01-24.5Q414.01-27.85 412.18-29.23 410.36-30.6 406.41-30.6L406.41-30.6 399.01-30.6 399.01-17.8 406.46-17.8ZM449.96-13.05L449.96-11.6 431.46-11.6Q431.86-7.75 434.03-5.48 436.21-3.2 439.96-3.2L439.96-3.2Q442.21-3.2 444.33-4.13 446.46-5.05 448.66-6.85L448.66-6.85 448.86-6.85 448.86-2.45Q446.66-0.85 444.5-0.13 442.36 0.6 439.91 0.6L439.91 0.6Q435.91 0.6 432.96-1.15 430-2.9 428.43-6.03 426.86-9.15 426.86-13.2L426.86-13.2Q426.86-17.05 428.28-20.13 429.71-23.2 432.36-24.95 435-26.7 438.56-26.7L438.56-26.7Q442.16-26.7 444.73-24.93 447.31-23.15 448.63-20.05 449.96-16.95 449.96-13.05L449.96-13.05ZM438.61-23.05Q435.5-23.05 433.66-20.8 431.81-18.55 431.46-15L431.46-15 445.41-15Q445.06-18.65 443.38-20.85 441.71-23.05 438.61-23.05L438.61-23.05ZM465.35 0.6Q462.95 0.6 460.63-0.13 458.3-0.85 456.25-2.2L456.25-2.2 456.25-6.8Q460.8-3.3 465.25-3.3L465.25-3.3Q467.85-3.3 469.45-4.38 471.05-5.45 471.05-7.25L471.05-7.25Q471.05-8.5 470.28-9.3 469.5-10.1 468.35-10.55 467.2-11 465.05-11.65L465.05-11.65Q462.4-12.4 460.68-13.13 458.95-13.85 457.75-15.28 456.55-16.7 456.55-19L456.55-19Q456.55-22.5 459.2-24.6 461.85-26.7 466.15-26.7L466.15-26.7Q470.45-26.7 473.95-24.45L473.95-24.45 473.95-20Q472-21.5 470.18-22.15 468.35-22.8 466.35-22.8L466.35-22.8Q463.85-22.8 462.4-21.9 460.95-21 460.95-19.4L460.95-19.4Q460.95-18.25 461.73-17.5 462.5-16.75 463.65-16.3 464.8-15.85 466.95-15.2L466.95-15.2Q469.65-14.4 471.35-13.68 473.05-12.95 474.25-11.48 475.45-10 475.45-7.65L475.45-7.65Q475.45-5.25 474.15-3.38 472.85-1.5 470.55-0.45 468.25 0.6 465.35 0.6L465.35 0.6ZM504.95-13.05L504.95-11.6 486.45-11.6Q486.85-7.75 489.03-5.48 491.2-3.2 494.95-3.2L494.95-3.2Q497.2-3.2 499.33-4.13 501.45-5.05 503.65-6.85L503.65-6.85 503.85-6.85 503.85-2.45Q501.65-0.85 499.5-0.13 497.35 0.6 494.9 0.6L494.9 0.6Q490.9 0.6 487.95-1.15 485-2.9 483.43-6.03 481.85-9.15 481.85-13.2L481.85-13.2Q481.85-17.05 483.28-20.13 484.7-23.2 487.35-24.95 490-26.7 493.55-26.7L493.55-26.7Q497.15-26.7 499.73-24.93 502.3-23.15 503.63-20.05 504.95-16.95 504.95-13.05L504.95-13.05ZM493.6-23.05Q490.5-23.05 488.65-20.8 486.8-18.55 486.45-15L486.45-15 500.4-15Q500.05-18.65 498.38-20.85 496.7-23.05 493.6-23.05L493.6-23.05ZM534 0L529.6 0 528.9-3.75Q526.95-1.6 524.67-0.5 522.4 0.6 519.55 0.6L519.55 0.6Q516 0.6 513.8-1.43 511.6-3.45 511.6-6.8L511.6-6.8Q511.6-11.15 515.1-13.2 518.6-15.25 524.1-15.25L524.1-15.25Q526.1-15.25 528.5-15L528.5-15 528.5-16.8Q528.5-19.5 527.02-21.13 525.55-22.75 523.2-22.75L523.2-22.75Q520.4-22.75 518.12-22 515.85-21.25 513.45-19.65L513.45-19.65 513.45-23.9Q515.8-25.45 518.25-26.08 520.7-26.7 523.85-26.7L523.85-26.7Q527.85-26.7 530.37-24.15 532.9-21.6 532.9-17.4L532.9-17.4 532.9-5.8 534 0ZM520.45-3.1Q522.85-3.1 524.75-4.1 526.65-5.1 528.5-7L528.5-7 528.5-11.9 523.9-11.9Q516.35-11.9 516.35-7.05L516.35-7.05Q516.35-5.25 517.5-4.17 518.65-3.1 520.45-3.1L520.45-3.1ZM553.89-26.7L555.45-26.7 555.45-21.85 554.7-21.85Q552.35-21.85 550.47-21 548.6-20.15 547.35-18.55L547.35-18.55 547.35 0 542.95 0 542.95-20.3 541.85-26.1 546.25-26.1 547.14-21.45Q549.2-24.45 550.62-25.58 552.05-26.7 553.89-26.7L553.89-26.7ZM572.34 0.6Q568.69 0.6 565.94-1.15 563.19-2.9 561.74-5.98 560.29-9.05 560.29-12.95L560.29-12.95Q560.29-16.9 561.74-20.03 563.19-23.15 565.94-24.93 568.69-26.7 572.39-26.7L572.39-26.7Q574.99-26.7 576.94-26.15 578.89-25.6 580.64-24.15L580.64-24.15 580.64-19.9 580.44-19.9Q578.64-21.4 576.72-22.05 574.79-22.7 572.34-22.7L572.34-22.7Q568.79-22.7 566.87-19.95 564.94-17.2 564.94-12.9L564.94-12.9Q564.94-8.75 566.87-6.08 568.79-3.4 572.29-3.4L572.29-3.4Q574.89-3.4 576.94-4.23 578.99-5.05 580.99-6.85L580.99-6.85 581.19-6.85 581.19-2.6Q579.34-0.85 577.22-0.13 575.09 0.6 572.34 0.6L572.34 0.6ZM603.29-26.7Q606.99-26.7 608.89-24.43 610.79-22.15 610.79-18.1L610.79-18.1 610.79 0 606.39 0 606.39-17.5Q606.39-20 605.34-21.38 604.29-22.75 602.14-22.75L602.14-22.75Q599.69-22.75 598.01-21.95 596.34-21.15 594.29-19.35L594.29-19.35 594.29 0 589.89 0 589.89-37.7 594.29-37.7 594.29-22.85Q596.49-24.85 598.46-25.78 600.44-26.7 603.29-26.7L603.29-26.7ZM642.94-13.05L642.94-11.6 624.44-11.6Q624.84-7.75 627.01-5.48 629.19-3.2 632.94-3.2L632.94-3.2Q635.19-3.2 637.31-4.13 639.44-5.05 641.64-6.85L641.64-6.85 641.84-6.85 641.84-2.45Q639.64-0.85 637.49-0.13 635.34 0.6 632.89 0.6L632.89 0.6Q628.89 0.6 625.94-1.15 622.99-2.9 621.41-6.03 619.84-9.15 619.84-13.2L619.84-13.2Q619.84-17.05 621.26-20.13 622.69-23.2 625.34-24.95 627.99-26.7 631.54-26.7L631.54-26.7Q635.14-26.7 637.71-24.93 640.29-23.15 641.61-20.05 642.94-16.95 642.94-13.05L642.94-13.05ZM631.59-23.05Q628.49-23.05 626.64-20.8 624.79-18.55 624.44-15L624.44-15 638.39-15Q638.04-18.65 636.36-20.85 634.69-23.05 631.59-23.05L631.59-23.05ZM662.88-26.7L664.43-26.7 664.43-21.85 663.68-21.85Q661.33-21.85 659.46-21 657.58-20.15 656.33-18.55L656.33-18.55 656.33 0 651.93 0 651.93-20.3 650.83-26.1 655.23-26.1 656.13-21.45Q658.18-24.45 659.61-25.58 661.03-26.7 662.88-26.7L662.88-26.7Z" opacity="1" transform="matrix(1,0,0,1,0,0)" fill="#000000" class="slogan-text-1" data-fill-palette-color="secondary" id="text-1"></path></svg></g></svg></g></svg></g></svg></g><g transform="matrix(1,0,0,1,152.07773052638376,0)"><svg viewBox="0 0 91.36453894723245 81.31430629249226" height="81.31430629249226" width="91.36453894723245"><g><svg xmlns="http://www.w3.org/2000/svg" xmlns:xlink="http://www.w3.org/1999/xlink" version="1.1" x="0" y="0" viewBox="12.469999999999999 42.087 479.53 426.781" style="enable-background:new 0 0 512 512;" xml:space="preserve" height="81.31430629249226" width="91.36453894723245" class="icon-icon-0" data-fill-palette-color="accent" id="icon-0"><g fill="#e8e8e8" data-fill-palette-color="accent"><g fill="#e8e8e8" data-fill-palette-color="accent"><path d="M435.389 168.493C460.481 169.939 482.186 186.193 491.107 209.057A71 71 0 0 0 492 197.933C492 159.557 460.844 127.871 422.548 127.301A4 4 0 0 1 422.054 127.263C421.91 127.242 421.624 127.242 421.347 127.242 392.929 127.242 367.383 144.201 356.266 170.447A70.7 70.7 0 0 0 350.848 194.246C363.744 196.234 373.653 207.459 373.653 220.966 373.653 235.839 361.585 247.94 346.752 247.94 331.854 247.94 319.732 235.839 319.732 220.966 319.732 207.388 329.791 196.12 342.842 194.219A78.8 78.8 0 0 1 348.893 167.342C360.679 139.519 387.021 121.091 416.819 119.385 409.764 107.301 397.84 98.423 384.088 95.269A51 51 0 0 0 372.658 93.986C345.36 93.986 322.991 115.534 321.608 142.542 329.779 145.77 335.424 153.788 335.424 162.756 335.424 164.833 335.097 167.035 334.48 169.123 331.573 178.31 323.228 184.433 313.692 184.433 301.71 184.433 291.962 174.708 291.962 162.756 291.962 150.768 301.71 141.014 313.692 141.014H313.704C315.855 110.313 341.466 85.987 372.658 85.987 375.701 85.987 378.744 86.239 381.752 86.704 368.625 66.313 346.594 54.239 322.35 54.239A70.2 70.2 0 0 0 289.436 62.406C301.247 76.515 307.716 94.197 307.716 112.719A4 4 0 1 1 299.717 112.719C299.717 94.641 292.867 77.443 280.433 64.291 267.153 50.178 248.453 42.087 229.121 42.087 210.899 42.087 193.699 48.938 180.589 61.375 209.568 72.611 229.17 99.85 230.622 130.96 243.611 132.862 253.619 144.1 253.619 157.64 253.619 172.514 241.551 184.615 226.717 184.615 211.817 184.615 199.695 172.514 199.695 157.64 199.695 144.163 209.652 132.964 222.61 130.984 221.114 102.02 202.113 76.84 174.364 67.625 167.272 65.204 159.78 63.981 152.063 63.981 112.453 63.981 84.258 87.666 81.734 122.187A60.5 60.5 0 0 1 93.636 120.988C122.165 120.988 146.746 141.608 151.834 169.347 165.458 170.687 176.138 182.212 176.138 196.19 176.138 211.064 164.044 223.165 149.178 223.165 134.31 223.165 122.215 211.064 122.215 196.19 122.215 183.172 131.479 172.28 143.758 169.763 138.949 146.306 117.956 128.988 93.636 128.988 88.615 128.988 83.576 129.721 78.658 131.169 56.985 137.786 42.397 157.469 42.397 180.135A50.6 50.6 0 0 0 50.588 207.782 4 4 0 0 1 50.944 211.459C48.302 218.009 46.905 225.166 46.905 232.155 46.905 262.941 71.913 287.988 102.652 287.988 102.879 287.988 103.098 288.018 103.314 288.054 103.53 288.018 103.75 287.988 103.976 287.988H266.066V337.138A4 4 0 0 0 270.066 341.138H392.326C410.338 341.138 424.992 355.799 424.992 373.821S410.338 406.503 392.326 406.503H150.17C149.48 395.293 144.465 384.374 135.77 375.377 119.677 358.726 92.506 349.555 59.264 349.555A4 4 0 0 0 55.264 353.555V379.865H16.47A4 4 0 0 0 16.47 387.865H55.265V430.558H16.47A4 4 0 0 0 16.47 438.558H55.265V464.868A4 4 0 0 0 59.265 468.868C117.654 468.868 146.588 441.384 149.916 414.504H392.325C414.748 414.504 432.991 396.254 432.991 373.822S414.748 333.139 392.325 333.139H274.065V287.989H431.744C446.572 287.989 460.552 282.17 471.109 271.602 481.671 260.981 487.49 246.97 487.49 232.156 487.49 229.444 487.31 226.992 486.941 224.661 483.346 198.302 461.489 178.215 435.346 176.51 433.416 186.528 424.614 194.118 414.072 194.118 402.089 194.118 392.339 184.365 392.339 172.378 392.339 160.424 402.089 150.699 414.072 150.699 424.697 150.697 433.554 158.387 435.389 168.493M63.265 460.82V357.6C92.476 358.285 116.078 366.509 130.019 380.935 138.379 389.586 142.607 399.763 142.245 410.371 141.465 434.103 116.396 459.602 63.265 460.82" fill="#000000" data-fill-palette-color="accent"></path><path d="M400.339 172.376C400.339 179.952 406.5 186.116 414.072 186.116 421.611 186.116 427.744 179.952 427.744 172.376 427.744 164.834 421.611 158.697 414.072 158.697 406.5 158.697 400.339 164.834 400.339 172.376" fill="#000000" data-fill-palette-color="accent"></path><path d="M149.177 215.164C159.632 215.164 168.137 206.652 168.137 196.189S159.632 177.214 149.177 177.214C138.72 177.214 130.214 185.726 130.214 196.189S138.72 215.164 149.177 215.164" fill="#000000" data-fill-palette-color="accent"></path><path d="M327.73 220.967C327.73 231.429 336.262 239.941 346.75 239.941 357.172 239.941 365.651 231.429 365.651 220.967 365.651 210.472 357.172 201.934 346.75 201.934 336.263 201.934 327.73 210.472 327.73 220.967" fill="#000000" data-fill-palette-color="accent"></path><path d="M299.96 162.756C299.96 170.297 306.119 176.433 313.69 176.433 319.721 176.433 325.002 172.554 326.829 166.782 327.21 165.493 327.423 164.076 327.423 162.757 327.423 156.361 322.88 150.722 316.62 149.345L316.491 149.315C315.7 149.113 314.783 149.015 313.69 149.015 306.119 149.014 299.96 155.179 299.96 162.756" fill="#000000" data-fill-palette-color="accent"></path><path d="M226.715 176.614C237.137 176.614 245.617 168.102 245.617 157.639 245.617 147.181 237.138 138.672 226.715 138.672 216.226 138.672 207.693 147.181 207.693 157.639 207.693 168.103 216.227 176.614 226.715 176.614" fill="#000000" data-fill-palette-color="accent"></path><path d="M87.097 386.898A4 4 0 0 0 83.097 390.898V423.134A4 4 0 0 0 91.097 423.134V390.898A4 4 0 0 0 87.097 386.898" fill="#000000" data-fill-palette-color="accent"></path><path d="M110.119 393.517A4 4 0 0 0 106.119 397.517V416.516A4 4 0 0 0 114.119 416.516V397.517A4 4 0 0 0 110.119 393.517" fill="#000000" data-fill-palette-color="accent"></path></g></g></svg></g></svg></g><g></g></svg></g><defs></defs></svg><rect width="395.52" height="165.93859043277928" fill="none" stroke="none" visibility="hidden"></rect></g></svg></g></svg>